<svg xmlns="http://www.w3.org/2000/svg" viewBox="0 0 900 820" width="900" height="820"><rect width="900" height="820" fill="#FFFFFF"/><defs><linearGradient id="remix-grad-s" x1="0%" y1="0%" x2="100%" y2="0%"><stop offset="0%" stop-color="#7A29FF"/><stop offset="100%" stop-color="#FF2BD6"/></linearGradient></defs><path d="M 450.00 80.00 A 180.00 180.00 0 0 1 599.23 159.35" fill="none" stroke="#0D32B2" stroke-width="34.00" stroke-linecap="round"/>
<path d="M 605.88 170.00 A 180.00 180.00 0 0 1 611.78 338.91" fill="none" stroke="#0D32B2" stroke-width="34.00" stroke-linecap="round"/>
<path d="M 605.88 350.00 A 180.00 180.00 0 0 1 462.56 439.56" fill="none" stroke="#0D32B2" stroke-width="34.00" stroke-linecap="round"/>
<path d="M 450.00 440.00 A 180.00 180.00 0 0 1 300.77 360.65" fill="none" stroke="#0D32B2" stroke-width="34.00" stroke-linecap="round"/>
<path d="M 294.12 350.00 A 180.00 180.00 0 0 1 288.22 181.09" fill="none" stroke="#0D32B2" stroke-width="34.00" stroke-linecap="round"/>
<path d="M 294.12 170.00 A 180.00 180.00 0 0 1 437.44 80.44" fill="none" stroke="url(#remix-grad-s)" stroke-width="34.00" stroke-linecap="round"/>
<circle cx="602.65" cy="164.61" r="18.70" fill="#0D32B2"/>
<circle cx="608.93" cy="344.50" r="18.70" fill="#0D32B2"/>
<circle cx="456.28" cy="439.89" r="18.70" fill="#0D32B2"/>
<circle cx="297.35" cy="355.39" r="18.70" fill="#0D32B2"/>
<circle cx="291.07" cy="175.50" r="18.70" fill="#0D32B2"/>
<circle cx="443.72" cy="80.11" r="18.70" fill="#0D32B2"/>
<path d="M 413.78 189.80 L 534.52 260.00 L 413.78 330.20 Z" fill="#0D32B2"/><text x="450" y="600" text-anchor="middle" font-family="DejaVu Sans, Inter, Helvetica, Arial, sans-serif" font-size="68" font-weight="800" fill="#0A0F25" letter-spacing="-2">Anything Remixathon</text><text x="450" y="685" text-anchor="middle" font-family="DejaVu Sans, Inter, Helvetica, Arial, sans-serif" font-size="34" font-weight="600" fill="#3A3E50" letter-spacing="8">AGENTIC&#160;&#160;OS</text><text x="450" y="755" text-anchor="middle" font-family="DejaVu Sans, Inter, Helvetica, Arial, sans-serif" font-size="24" font-weight="400" fill="#3A3E50" letter-spacing="2" font-style="italic">speak · route · approve · act · verify · remember</text></svg>