<svg xmlns="http://www.w3.org/2000/svg" viewBox="0 0 1600 360" width="1600" height="360"><rect width="1600" height="360" fill="#FFFFFF"/><defs><linearGradient id="remix-grad-h" x1="0%" y1="0%" x2="100%" y2="0%"><stop offset="0%" stop-color="#7A29FF"/><stop offset="100%" stop-color="#FF2BD6"/></linearGradient></defs><path d="M 180.00 70.00 A 110.00 110.00 0 0 1 271.19 118.49" fill="none" stroke="#0D32B2" stroke-width="22.00" stroke-linecap="round"/>
<path d="M 275.26 125.00 A 110.00 110.00 0 0 1 278.87 228.22" fill="none" stroke="#0D32B2" stroke-width="22.00" stroke-linecap="round"/>
<path d="M 275.26 235.00 A 110.00 110.00 0 0 1 187.67 289.73" fill="none" stroke="#0D32B2" stroke-width="22.00" stroke-linecap="round"/>
<path d="M 180.00 290.00 A 110.00 110.00 0 0 1 88.81 241.51" fill="none" stroke="#0D32B2" stroke-width="22.00" stroke-linecap="round"/>
<path d="M 84.74 235.00 A 110.00 110.00 0 0 1 81.13 131.78" fill="none" stroke="#0D32B2" stroke-width="22.00" stroke-linecap="round"/>
<path d="M 84.74 125.00 A 110.00 110.00 0 0 1 172.33 70.27" fill="none" stroke="url(#remix-grad-h)" stroke-width="22.00" stroke-linecap="round"/>
<circle cx="273.29" cy="121.71" r="12.10" fill="#0D32B2"/>
<circle cx="277.12" cy="231.64" r="12.10" fill="#0D32B2"/>
<circle cx="183.84" cy="289.93" r="12.10" fill="#0D32B2"/>
<circle cx="86.71" cy="238.29" r="12.10" fill="#0D32B2"/>
<circle cx="82.88" cy="128.36" r="12.10" fill="#0D32B2"/>
<circle cx="176.16" cy="70.07" r="12.10" fill="#0D32B2"/>
<path d="M 157.86 137.10 L 231.65 180.00 L 157.86 222.90 Z" fill="#0D32B2"/><text x="340" y="170" font-family="DejaVu Sans, Inter, Helvetica, Arial, sans-serif" font-size="78" font-weight="800" fill="#0A0F25" letter-spacing="-2">Anything Remixathon</text><text x="340" y="240" font-family="DejaVu Sans, Inter, Helvetica, Arial, sans-serif" font-size="38" font-weight="500" fill="#3A3E50" letter-spacing="6">AGENTIC&#160;&#160;OS&#160;&#160;·&#160;&#160;LOVELOGICAI</text></svg>