<svg xmlns="http://www.w3.org/2000/svg" viewBox="0 0 1200 630" width="1200" height="630"><defs><linearGradient id="remix-grad-card" x1="0%" y1="0%" x2="100%" y2="0%"><stop offset="0%" stop-color="#7A29FF"/><stop offset="100%" stop-color="#FF2BD6"/></linearGradient><linearGradient id="card-bg-grad" x1="0" y1="0" x2="1" y2="1"><stop offset="0%" stop-color="#0A0F25"/><stop offset="100%" stop-color="#1A1F4D"/></linearGradient></defs><rect width="1200" height="630" fill="url(#card-bg-grad)"/><circle cx="980" cy="315" r="240" fill="none" stroke="#FF2BD6" stroke-width="1" opacity="0.10"/><circle cx="980" cy="315" r="200" fill="none" stroke="#FF2BD6" stroke-width="1" opacity="0.14"/><circle cx="980" cy="315" r="160" fill="none" stroke="#FF2BD6" stroke-width="1" opacity="0.18"/><circle cx="980" cy="315" r="120" fill="none" stroke="#FF2BD6" stroke-width="1" opacity="0.22"/><circle cx="980" cy="315" r="80" fill="none" stroke="#FF2BD6" stroke-width="1" opacity="0.26"/><path d="M 980.00 185.00 A 130.00 130.00 0 0 1 1087.77 242.30" fill="none" stroke="#FFFFFF" stroke-width="24.00" stroke-linecap="round"/>
<path d="M 1092.58 250.00 A 130.00 130.00 0 0 1 1096.84 371.99" fill="none" stroke="#FFFFFF" stroke-width="24.00" stroke-linecap="round"/>
<path d="M 1092.58 380.00 A 130.00 130.00 0 0 1 989.07 444.68" fill="none" stroke="#FFFFFF" stroke-width="24.00" stroke-linecap="round"/>
<path d="M 980.00 445.00 A 130.00 130.00 0 0 1 872.23 387.70" fill="none" stroke="#FFFFFF" stroke-width="24.00" stroke-linecap="round"/>
<path d="M 867.42 380.00 A 130.00 130.00 0 0 1 863.16 258.01" fill="none" stroke="#FFFFFF" stroke-width="24.00" stroke-linecap="round"/>
<path d="M 867.42 250.00 A 130.00 130.00 0 0 1 970.93 185.32" fill="none" stroke="url(#remix-grad-card)" stroke-width="24.00" stroke-linecap="round"/>
<circle cx="1090.25" cy="246.11" r="13.20" fill="#FFFFFF"/>
<circle cx="1094.78" cy="376.03" r="13.20" fill="#FFFFFF"/>
<circle cx="984.54" cy="444.92" r="13.20" fill="#FFFFFF"/>
<circle cx="869.75" cy="383.89" r="13.20" fill="#FFFFFF"/>
<circle cx="865.22" cy="253.97" r="13.20" fill="#FFFFFF"/>
<circle cx="975.46" cy="185.08" r="13.20" fill="#FFFFFF"/>
<path d="M 953.84 264.30 L 1041.04 315.00 L 953.84 365.70 Z" fill="#FFFFFF"/><rect x="80" y="120" width="420" height="54" rx="27" fill="none" stroke="#FF2BD6" stroke-width="2"/><text x="105" y="156" font-family="DejaVu Sans, Inter, Helvetica, Arial, sans-serif" font-size="22" font-weight="700" fill="#FF2BD6" letter-spacing="4">ANYTHING REMIXATHON · MAY 2026</text><text x="80" y="265" font-family="DejaVu Sans, Inter, Helvetica, Arial, sans-serif" font-size="60" font-weight="800" fill="#FFFFFF" letter-spacing="-2">Speak. Route. Approve.</text><text x="80" y="345" font-family="DejaVu Sans, Inter, Helvetica, Arial, sans-serif" font-size="60" font-weight="800" fill="url(#remix-grad-card)" letter-spacing="-2">Act. Verify. Remember.</text><text x="80" y="420" font-family="DejaVu Sans, Inter, Helvetica, Arial, sans-serif" font-size="26" font-weight="500" fill="#B6B9C7">A voice-native operating system for the Agentic Web.</text><line x1="80" y1="540" x2="1120" y2="540" stroke="#FF2BD6" stroke-width="1" opacity="0.4"/><text x="80" y="585" font-family="DejaVu Sans, Inter, Helvetica, Arial, sans-serif" font-size="22" font-weight="600" fill="#FFFFFF" letter-spacing="3">AGENTIC OS · LOVELOGICAI</text><text x="1120" y="585" text-anchor="end" font-family="DejaVu Sans, Inter, Helvetica, Arial, sans-serif" font-size="22" font-weight="400" fill="#B6B9C7">github.com/RemyLoveLogicAI/agentic-os</text></svg>