<svg xmlns="http://www.w3.org/2000/svg" viewBox="0 0 1920 1080" width="1920" height="1080"><defs><linearGradient id="bg-grad" x1="0" y1="0" x2="1" y2="1"><stop offset="0%" stop-color="#0A0F25"/><stop offset="100%" stop-color="#1A1F4D"/></linearGradient><linearGradient id="remix-grad-jam" x1="0%" y1="0%" x2="100%" y2="0%"><stop offset="0%" stop-color="#7A29FF"/><stop offset="100%" stop-color="#FF2BD6"/></linearGradient></defs><rect width="1920" height="1080" fill="url(#bg-grad)"/><circle cx="960" cy="540" r="460" fill="none" stroke="#FF2BD6" stroke-width="1" opacity="0.07"/><circle cx="960" cy="540" r="380" fill="none" stroke="#FF2BD6" stroke-width="1" opacity="0.11"/><circle cx="960" cy="540" r="300" fill="none" stroke="#FF2BD6" stroke-width="1" opacity="0.15"/><circle cx="960" cy="540" r="220" fill="none" stroke="#FF2BD6" stroke-width="1" opacity="0.19"/><circle cx="960" cy="540" r="150" fill="none" stroke="#FF2BD6" stroke-width="1" opacity="0.23"/><path d="M 960.00 240.00 A 160.00 160.00 0 0 1 1092.65 310.53" fill="none" stroke="#FFFFFF" stroke-width="28.00" stroke-linecap="round"/>
<path d="M 1098.56 320.00 A 160.00 160.00 0 0 1 1103.81 470.14" fill="none" stroke="#FFFFFF" stroke-width="28.00" stroke-linecap="round"/>
<path d="M 1098.56 480.00 A 160.00 160.00 0 0 1 971.16 559.61" fill="none" stroke="#FFFFFF" stroke-width="28.00" stroke-linecap="round"/>
<path d="M 960.00 560.00 A 160.00 160.00 0 0 1 827.35 489.47" fill="none" stroke="#FFFFFF" stroke-width="28.00" stroke-linecap="round"/>
<path d="M 821.44 480.00 A 160.00 160.00 0 0 1 816.19 329.86" fill="none" stroke="#FFFFFF" stroke-width="28.00" stroke-linecap="round"/>
<path d="M 821.44 320.00 A 160.00 160.00 0 0 1 948.84 240.39" fill="none" stroke="url(#remix-grad-jam)" stroke-width="28.00" stroke-linecap="round"/>
<circle cx="1095.69" cy="315.21" r="15.40" fill="#FFFFFF"/>
<circle cx="1101.27" cy="475.12" r="15.40" fill="#FFFFFF"/>
<circle cx="965.58" cy="559.90" r="15.40" fill="#FFFFFF"/>
<circle cx="824.31" cy="484.79" r="15.40" fill="#FFFFFF"/>
<circle cx="818.73" cy="324.88" r="15.40" fill="#FFFFFF"/>
<circle cx="954.42" cy="240.10" r="15.40" fill="#FFFFFF"/>
<path d="M 927.80 337.60 L 1035.13 400.00 L 927.80 462.40 Z" fill="#FFFFFF"/><text x="960" y="720" font-family="DejaVu Sans, Inter, Helvetica, Arial, sans-serif" font-size="84" font-weight="800" fill="#FFFFFF" text-anchor="middle" font-style="normal" letter-spacing="-2">Thanks for watching.</text><text x="960" y="800" font-family="DejaVu Sans, Inter, Helvetica, Arial, sans-serif" font-size="64" font-weight="800" fill="url(#remix-grad-jam)" text-anchor="middle" font-style="normal" letter-spacing="-2">Remix the loop.</text><rect x="540" y="870" width="380" height="80" rx="40" fill="#FFFFFF"/><text x="730" y="925" font-family="DejaVu Sans, Inter, Helvetica, Arial, sans-serif" font-size="28" font-weight="700" fill="#0A0F25" text-anchor="middle" font-style="normal" letter-spacing="0">Read the Spec</text><rect x="1000" y="870" width="380" height="80" rx="40" fill="none" stroke="#FF2BD6" stroke-width="2"/><text x="1190" y="925" font-family="DejaVu Sans, Inter, Helvetica, Arial, sans-serif" font-size="28" font-weight="700" fill="#FF2BD6" text-anchor="middle" font-style="normal" letter-spacing="0">Star on GitHub</text><text x="960" y="1020" font-family="DejaVu Sans, Inter, Helvetica, Arial, sans-serif" font-size="20" font-weight="500" fill="#B6B9C7" text-anchor="middle" font-style="normal" letter-spacing="2">github.com/RemyLoveLogicAI/agentic-os    ·    AGENTIC OS · LOVELOGICAI</text></svg>