<svg xmlns="http://www.w3.org/2000/svg" viewBox="0 0 1920 1080" width="1920" height="1080"><defs><linearGradient id="bg-grad" x1="0" y1="0" x2="1" y2="1"><stop offset="0%" stop-color="#0A0F25"/><stop offset="100%" stop-color="#1A1F4D"/></linearGradient><linearGradient id="remix-grad-jam" x1="0%" y1="0%" x2="100%" y2="0%"><stop offset="0%" stop-color="#7A29FF"/><stop offset="100%" stop-color="#FF2BD6"/></linearGradient></defs><rect width="1920" height="1080" fill="url(#bg-grad)"/><circle cx="1500" cy="540" r="460" fill="none" stroke="#FF2BD6" stroke-width="1" opacity="0.07"/><circle cx="1500" cy="540" r="380" fill="none" stroke="#FF2BD6" stroke-width="1" opacity="0.11"/><circle cx="1500" cy="540" r="300" fill="none" stroke="#FF2BD6" stroke-width="1" opacity="0.15"/><circle cx="1500" cy="540" r="220" fill="none" stroke="#FF2BD6" stroke-width="1" opacity="0.19"/><circle cx="1500" cy="540" r="150" fill="none" stroke="#FF2BD6" stroke-width="1" opacity="0.23"/><path d="M 1500.00 370.00 A 170.00 170.00 0 0 1 1640.94 444.94" fill="none" stroke="#FFFFFF" stroke-width="28.00" stroke-linecap="round"/>
<path d="M 1647.22 455.00 A 170.00 170.00 0 0 1 1652.79 614.52" fill="none" stroke="#FFFFFF" stroke-width="28.00" stroke-linecap="round"/>
<path d="M 1647.22 625.00 A 170.00 170.00 0 0 1 1511.86 709.59" fill="none" stroke="#FFFFFF" stroke-width="28.00" stroke-linecap="round"/>
<path d="M 1500.00 710.00 A 170.00 170.00 0 0 1 1359.06 635.06" fill="none" stroke="#FFFFFF" stroke-width="28.00" stroke-linecap="round"/>
<path d="M 1352.78 625.00 A 170.00 170.00 0 0 1 1347.21 465.48" fill="none" stroke="#FFFFFF" stroke-width="28.00" stroke-linecap="round"/>
<path d="M 1352.78 455.00 A 170.00 170.00 0 0 1 1488.14 370.41" fill="none" stroke="url(#remix-grad-jam)" stroke-width="28.00" stroke-linecap="round"/>
<circle cx="1644.17" cy="449.91" r="15.40" fill="#FFFFFF"/>
<circle cx="1650.10" cy="619.81" r="15.40" fill="#FFFFFF"/>
<circle cx="1505.93" cy="709.90" r="15.40" fill="#FFFFFF"/>
<circle cx="1355.83" cy="630.09" r="15.40" fill="#FFFFFF"/>
<circle cx="1349.90" cy="460.19" r="15.40" fill="#FFFFFF"/>
<circle cx="1494.07" cy="370.10" r="15.40" fill="#FFFFFF"/>
<path d="M 1465.79 473.70 L 1579.83 540.00 L 1465.79 606.30 Z" fill="#FFFFFF"/><text x="120" y="380" font-family="DejaVu Sans, Inter, Helvetica, Arial, sans-serif" font-size="240" font-weight="800" fill="url(#remix-grad-jam)" text-anchor="start" font-style="normal" letter-spacing="-6">01</text><text x="120" y="530" font-family="DejaVu Sans, Inter, Helvetica, Arial, sans-serif" font-size="28" font-weight="700" fill="#B6B9C7" text-anchor="start" font-style="normal" letter-spacing="8">CHAPTER</text><text x="120" y="660" font-family="DejaVu Sans, Inter, Helvetica, Arial, sans-serif" font-size="104" font-weight="800" fill="#FFFFFF" text-anchor="start" font-style="normal" letter-spacing="-3">Speak</text><text x="120" y="740" font-family="DejaVu Sans, Inter, Helvetica, Arial, sans-serif" font-size="32" font-weight="400" fill="#B6B9C7" text-anchor="start" font-style="normal" letter-spacing="0">voice clarification with Spokenly MCP</text><line x1="120" y1="950" x2="1300" y2="950" stroke="#FF2BD6" stroke-width="1" opacity="0.4"/><text x="120" y="1010" font-family="DejaVu Sans, Inter, Helvetica, Arial, sans-serif" font-size="22" font-weight="700" fill="#FFFFFF" text-anchor="start" font-style="normal" letter-spacing="4">AGENTIC OS · LOVELOGICAI</text></svg>